<?xml version="1.0" standalone="no"?>
<!DOCTYPE svg PUBLIC "-//W3C//DTD SVG 20010904//EN"
 "http://www.w3.org/TR/2001/REC-SVG-20010904/DTD/svg10.dtd">
<svg version="1.0" xmlns="http://www.w3.org/2000/svg"
 width="261.000000pt" height="261.000000pt" viewBox="0 0 261.000000 261.000000"
 preserveAspectRatio="xMidYMid meet">
<metadata>
Created by potrace 1.11, written by Peter Selinger 2001-2013
</metadata>
<g transform="translate(0.000000,261.000000) scale(0.100000,-0.100000)"
fill="#000000" stroke="none">
<path d="M1572 2545 c-40 -19 -75 -42 -79 -52 -3 -10 -16 -32 -29 -49 -12 -17
-30 -46 -38 -65 l-16 -34 6 35 c3 19 8 46 11 60 4 17 2 22 -4 15 -14 -14 -33
-73 -33 -103 0 -23 1 -24 22 -10 12 8 26 28 30 45 8 31 48 76 48 54 0 -7 5 -9
12 -5 8 5 9 2 5 -10 -4 -10 -7 -27 -8 -39 -1 -20 -2 -20 -8 3 -7 24 -7 24 -14
-8 -4 -18 -11 -31 -16 -28 -12 8 -30 -45 -27 -83 1 -18 -3 -32 -11 -36 -8 -2
-12 -1 -8 4 3 5 -9 13 -27 16 -18 4 -42 12 -53 18 -11 6 -26 12 -34 13 -8 2
-17 8 -21 15 -4 6 -13 8 -19 4 -7 -4 -17 -3 -24 2 -7 5 -27 10 -46 12 -20 1
-40 9 -47 20 -13 18 -71 28 -204 37 -61 4 -108 10 -149 19 -27 6 -32 5 -26 -5
9 -14 -1 -10 -47 22 -14 10 -33 18 -41 18 -8 0 -20 6 -26 14 -15 18 -60 26
-88 15 -22 -8 -23 -12 -17 -76 4 -38 10 -73 15 -79 5 -6 3 -16 -4 -24 -8 -9
-9 -11 0 -6 6 3 14 2 18 -3 3 -6 12 -8 20 -5 8 4 12 10 9 15 -3 5 3 6 12 2 10
-3 15 -2 12 3 -7 10 19 15 95 16 123 2 210 -30 213 -77 1 -11 5 -37 9 -59 5
-30 4 -37 -7 -30 -10 6 -11 5 -1 -7 17 -21 31 -89 38 -184 14 -194 13 -193
130 -185 64 4 96 11 89 21 -3 5 0 9 6 9 13 0 17 -12 24 -65 3 -22 5 -40 6 -40
0 0 36 0 80 1 47 0 84 -4 89 -10 4 -6 11 -49 14 -96 3 -47 2 -74 -2 -60 -6 21
-8 18 -15 -25 -4 -27 -9 -57 -10 -65 -2 -8 -6 -41 -10 -73 -7 -64 -27 -119
-51 -143 -8 -9 -13 -19 -11 -23 4 -6 -55 -44 -238 -149 -104 -61 -155 -122
-175 -211 -7 -34 -6 -43 8 -54 30 -21 69 -109 86 -192 24 -114 47 -185 58
-178 6 3 7 1 4 -4 -11 -17 37 -111 49 -99 6 6 8 24 4 41 -4 17 -6 38 -4 47 1
9 -5 19 -13 22 -12 5 -14 0 -10 -21 6 -25 5 -25 -8 5 -46 100 -104 366 -83
378 5 3 6 14 3 25 -13 39 75 89 158 89 20 0 38 3 40 8 3 4 -16 6 -41 4 l-47
-2 59 30 c32 17 56 34 53 37 -3 2 -34 -11 -70 -31 -35 -20 -70 -36 -79 -36 -8
0 -34 -13 -59 -29 l-46 -29 4 -58 c2 -31 0 -54 -4 -51 -3 4 -7 15 -8 25 -1 9
-10 34 -19 54 -9 21 -16 42 -16 47 0 19 84 107 139 144 31 21 63 44 71 51 32
28 274 156 294 156 8 0 20 -8 26 -17 11 -17 11 -17 6 0 -5 17 -2 18 36 12 24
-4 68 -18 99 -32 46 -20 61 -23 78 -14 16 9 28 8 51 -4 17 -9 36 -13 42 -9 7
4 8 3 4 -4 -4 -6 5 -18 19 -28 13 -9 22 -21 19 -26 -4 -6 -10 -5 -15 3 -5 8
-9 9 -9 3 0 -6 9 -19 20 -29 34 -31 34 -52 -1 -85 -18 -16 -35 -28 -37 -25 -3
2 -21 -4 -41 -14 -20 -10 -83 -33 -141 -50 -58 -17 -113 -36 -122 -41 -10 -6
-23 -10 -30 -10 -6 0 -29 -12 -49 -26 -20 -14 -59 -33 -85 -43 -46 -16 -49
-20 -54 -56 -3 -22 -2 -56 3 -75 14 -57 89 -243 110 -271 18 -25 21 -70 5 -70
-4 0 -24 -7 -45 -15 -35 -15 -137 -20 -190 -10 -13 3 -23 1 -23 -5 0 -5 21
-10 48 -11 l47 -1 -50 -7 c-27 -4 -43 -8 -34 -8 9 -1 19 -11 22 -22 3 -12 1
-17 -5 -14 -5 3 -12 -3 -15 -14 -4 -15 -12 -20 -31 -18 -15 2 -34 0 -42 -5 -8
-4 -26 -10 -40 -13 -38 -8 -90 -44 -90 -62 0 -18 25 -46 33 -37 3 3 13 -2 21
-10 9 -8 24 -14 33 -12 10 2 56 9 103 15 47 6 105 18 130 25 68 20 178 38 195
31 9 -3 13 -2 10 4 -3 6 0 10 7 11 7 0 4 4 -7 9 -19 7 -18 8 5 13 14 3 47 8
74 11 72 9 97 25 144 96 69 104 86 141 70 151 -7 5 -19 7 -25 4 -7 -2 -13 0
-13 5 0 5 -24 20 -53 34 -60 30 -90 56 -118 104 -12 21 -25 32 -34 28 -8 -3
-17 0 -21 6 -4 7 -3 8 4 4 7 -4 12 -3 12 2 0 9 -53 37 -57 30 -1 -1 -17 12
-36 30 -18 18 -36 30 -38 27 -3 -2 -22 10 -42 29 -20 18 -40 30 -43 27 -4 -3
-4 0 0 7 4 7 11 10 16 7 4 -2 50 17 101 44 82 43 182 79 337 121 24 6 51 19
60 28 35 35 69 51 80 40 8 -8 13 0 18 30 3 23 15 49 25 58 11 9 19 21 19 27 0
5 18 36 39 68 40 60 76 160 67 185 -3 8 0 11 9 8 15 -6 39 31 30 46 -3 5 -1
12 5 15 7 4 9 63 7 169 -4 162 -4 163 -40 242 -20 43 -42 78 -48 76 -6 -1 -8
1 -5 6 3 5 -12 26 -34 47 -37 36 -41 37 -86 30 -43 -6 -45 -8 -31 -22 13 -13
19 -14 31 -4 28 23 59 4 94 -55 17 -30 35 -66 38 -80 3 -13 9 -22 13 -20 4 3
5 -10 3 -29 -4 -37 16 -147 26 -141 4 2 8 -6 9 -17 1 -12 5 -50 9 -84 5 -48 3
-65 -8 -77 -8 -8 -25 -56 -37 -107 -20 -89 -45 -142 -84 -184 -11 -11 -30 -44
-44 -73 -27 -56 -37 -60 -62 -21 -15 24 -15 24 5 6 43 -36 37 -15 -6 24 -37
33 -41 39 -20 33 17 -4 22 -3 15 4 -5 5 -46 20 -90 32 -44 12 -111 32 -150 44
-44 13 -97 21 -143 21 -60 0 -71 2 -66 15 4 8 13 40 21 70 9 30 20 61 25 67 6
7 8 20 4 28 -3 9 -2 13 4 10 10 -6 14 54 9 130 -1 22 -3 61 -3 87 -1 25 -5 44
-10 40 -5 -3 -6 0 -1 7 5 8 11 9 17 3 6 -6 24 -6 46 -1 20 5 64 9 98 9 33 0
64 3 68 8 4 4 11 7 14 8 43 3 112 17 108 21 -2 3 -51 -2 -108 -11 -57 -9 -140
-16 -186 -17 -45 -1 -84 -5 -87 -9 -2 -3 -28 -3 -57 0 -29 4 -60 5 -69 3 -18
-5 -25 41 -33 218 -2 41 -8 84 -14 95 -9 17 -6 22 19 33 17 7 28 16 25 19 -3
3 -1 11 5 19 8 9 8 13 1 13 -6 0 -14 -4 -17 -10 -8 -13 -46 -33 -44 -23 3 15
-14 73 -20 69 -3 -2 -7 10 -7 26 l-1 31 60 -6 c32 -3 64 -11 71 -18 8 -9 7
-11 -6 -6 -13 4 -16 1 -13 -15 3 -12 0 -27 -6 -35 -7 -7 -8 -13 -4 -13 4 0 2
-7 -5 -15 -7 -9 -8 -15 -2 -15 5 0 13 -37 17 -82 3 -46 10 -94 15 -108 5 -14
11 -37 14 -51 6 -30 -5 -29 166 -14 47 4 89 10 94 13 4 2 30 6 56 8 26 2 65
11 86 20 21 9 47 18 58 20 12 2 32 13 46 24 14 11 41 27 60 36 28 14 31 18 16
21 -10 3 -21 1 -25 -5 -3 -5 -17 -13 -31 -17 -14 -4 -34 -15 -45 -25 -11 -10
-52 -28 -91 -39 -78 -23 -97 -26 -74 -11 17 11 3 10 -133 -16 -87 -16 -144
-13 -132 6 9 14 -9 12 -23 -2 -7 -7 -12 -10 -13 -7 0 2 -3 23 -5 45 l-5 41 46
12 c25 6 44 15 41 19 -6 10 120 9 130 -1 4 -4 17 -1 28 6 12 8 41 17 66 20 25
3 36 3 26 -2 -14 -5 -16 -10 -8 -15 7 -4 12 -4 12 0 0 4 6 0 14 -11 12 -17 17
-17 75 -5 33 8 61 17 61 21 0 4 -10 5 -22 1 -16 -4 -19 -2 -12 9 5 8 7 22 6
32 -2 9 2 17 7 17 6 0 11 -7 11 -15 0 -29 18 -14 38 32 16 37 18 51 9 62 -8
10 -8 13 -1 8 8 -4 14 8 18 33 3 22 11 40 17 40 5 0 7 5 4 10 -3 6 1 10 9 10
9 0 16 -5 16 -11 0 -6 12 4 26 21 15 17 24 33 21 37 -4 3 -2 14 4 24 5 11 7
19 4 19 -3 0 -13 -17 -22 -37 -9 -21 -18 -33 -20 -26 -2 6 3 22 11 35 17 25
56 141 56 165 0 8 -5 11 -12 7 -8 -5 -9 -2 -5 9 5 12 1 17 -12 17 -24 0 -45
25 -35 42 6 11 5 11 -8 0 -18 -15 -34 -1 -23 21 4 6 -1 3 -9 -7 -16 -20 -16
-20 -17 0 0 10 -3 14 -5 7 -4 -9 -11 -9 -29 -1 -14 6 -22 16 -18 21 4 6 0 8
-11 4 -10 -4 -19 -1 -22 8 -4 8 -10 12 -15 9 -5 -2 -21 -6 -36 -8 -140 -18
-131 -18 -98 -2 17 8 25 15 20 15 -6 1 -43 -15 -83 -34z m203 5 c-3 -5 -13
-10 -21 -10 -8 0 -12 5 -9 10 3 6 13 10 21 10 8 0 12 -4 9 -10z m-195 -34 c0
-2 -7 -7 -16 -10 -8 -3 -12 -2 -9 4 6 10 25 14 25 6z m-10 -30 c0 -2 -7 -9
-15 -16 -13 -11 -14 -10 -9 4 5 14 24 23 24 12z m66 -18 c0 -7 3 -14 8 -15 5
-1 12 -7 17 -14 6 -11 9 -10 14 3 5 14 10 15 20 5 7 -7 11 -15 8 -19 -2 -5 1
-8 8 -8 8 0 8 -4 -1 -15 -10 -12 -9 -15 8 -15 12 0 24 11 32 30 7 17 16 33 21
35 8 6 -4 -46 -16 -65 -4 -6 -3 -10 2 -9 25 4 35 -3 30 -21 -3 -11 -2 -20 3
-20 12 0 20 29 10 35 -6 4 -10 11 -10 16 0 6 5 7 10 4 6 -4 17 -2 24 4 10 9
13 2 14 -33 2 -52 -15 -61 -75 -41 -25 9 -45 10 -62 4 -19 -8 -29 -5 -47 12
-28 26 -122 60 -130 47 -3 -5 -3 -15 0 -23 3 -8 1 -17 -4 -20 -19 -12 -11 -63
10 -70 11 -3 20 -10 20 -15 0 -5 10 -10 22 -12 l21 -3 -24 -28 -24 -29 -25 20
c-14 11 -34 21 -45 23 -23 5 -33 58 -15 86 8 14 10 9 5 -23 -4 -25 -2 -45 4
-48 10 -6 21 22 26 63 6 52 19 101 26 101 5 0 8 10 6 23 -2 12 -2 16 0 10 7
-21 39 -15 57 10 16 22 16 22 11 -13 l-6 -35 21 38 c21 39 29 46 26 25z
m-1064 -38 c-13 -23 -18 -26 -21 -13 -2 9 5 23 15 30 25 18 25 17 6 -17z m98
-24 c0 -5 -3 -6 -7 -3 -8 9 -36 -30 -29 -42 3 -4 -3 -16 -14 -26 -19 -17 -19
-16 -13 21 3 22 10 41 15 42 10 4 11 32 1 31 -17 -3 -24 2 -18 11 7 12 65 -18
65 -34z m1184 28 c3 -8 2 -12 -4 -9 -6 3 -10 10 -10 16 0 14 7 11 14 -7z
m-1278 -66 c-8 -23 -15 -36 -16 -27 0 21 21 81 27 75 2 -2 -2 -24 -11 -48z
m158 24 c2 -4 -4 -13 -14 -19 -15 -10 -17 -9 -13 8 5 20 18 25 27 11z m1166
-14 c0 -6 -8 -20 -17 -31 -10 -11 -12 -17 -5 -13 6 4 12 3 12 -2 0 -6 -7 -12
-14 -15 -24 -9 -30 29 -9 57 18 24 33 25 33 4z m-1144 -23 c-4 -11 1 -15 17
-15 18 0 19 2 7 10 -12 8 -9 10 13 10 33 0 36 -15 5 -24 -37 -9 -47 -7 -58 14
-9 16 -8 20 6 20 10 0 14 -5 10 -15z m101 -1 c-3 -3 -12 -4 -19 -1 -8 3 -5 6
6 6 11 1 17 -2 13 -5z m37 -3 c14 -22 -5 -36 -45 -33 -22 2 -37 7 -34 10 3 4
22 5 43 3 32 -3 35 -1 23 13 -8 10 -9 16 -3 16 6 0 13 -4 16 -9z m236 -11 c0
-5 -4 -10 -9 -10 -6 0 -13 5 -16 10 -3 6 1 10 9 10 9 0 16 -4 16 -10z m494 4
c9 -3 16 -13 16 -21 0 -11 -5 -13 -17 -8 -32 14 -68 11 -65 -5 3 -12 1 -12 -9
-3 -27 27 29 55 75 37z m-587 -27 c-4 -13 -37 -19 -57 -10 -11 4 -8 8 10 13
36 9 51 8 47 -3z m40 -3 c-3 -3 -12 -4 -19 -1 -8 3 -5 6 6 6 11 1 17 -2 13 -5z
m539 -15 c9 -15 -23 -10 -35 5 -10 12 -8 13 9 9 11 -3 23 -9 26 -14z m-491 0
c11 -17 -1 -21 -15 -4 -8 9 -8 15 -2 15 6 0 14 -5 17 -11z m77 -13 c4 -6 8
-18 7 -26 0 -10 -3 -9 -12 5 -7 12 -20 19 -29 17 -11 -2 -18 2 -18 11 0 17 40
11 52 -7z m479 -66 c6 0 7 5 4 10 -3 6 -2 10 4 10 21 0 19 -17 -2 -28 -28 -13
-79 -10 -84 5 -2 6 7 19 20 28 14 9 29 28 33 43 8 24 9 22 12 -20 2 -27 8 -48
13 -48z m94 70 c10 -11 15 -23 12 -27 -4 -3 -1 -13 5 -22 11 -14 10 -14 -7 0
-11 9 -27 19 -35 22 -10 3 -7 6 8 6 35 1 16 21 -20 21 -27 0 -29 -2 -17 -17 8
-9 9 -14 2 -10 -6 4 -14 1 -16 -5 -3 -7 -6 -4 -6 8 -2 43 43 58 74 24z m126 3
c0 -15 2 -15 9 2 13 31 12 -4 -2 -41 -7 -21 -18 -32 -29 -31 -11 1 -15 7 -11
17 5 13 4 13 -13 0 -17 -14 -18 -14 -6 8 7 13 10 30 7 38 -3 8 -2 12 3 9 5 -3
12 -1 16 5 10 16 25 12 26 -7z m-836 -3 c3 -5 1 -10 -4 -10 -6 0 -11 5 -11 10
0 6 2 10 4 10 3 0 8 -4 11 -10z m778 -9 c2 -10 0 -26 -5 -36 -7 -11 -7 -20 -1
-24 11 -7 26 -44 15 -37 -4 2 -16 -31 -26 -74 -11 -44 -23 -77 -27 -74 -5 3
-27 -5 -50 -16 -29 -15 -63 -22 -109 -23 -38 -1 -66 1 -64 5 2 3 -15 12 -38
20 -38 11 -43 17 -44 43 -2 43 -7 58 -24 72 -25 21 0 14 31 -8 16 -11 38 -22
50 -24 11 -2 27 -10 35 -16 26 -22 29 2 3 25 -34 29 -28 49 9 30 34 -18 48
-18 55 0 4 9 -4 16 -24 20 -16 3 -29 10 -29 15 0 5 15 5 38 0 31 -7 40 -5 53
11 12 14 26 18 50 15 46 -6 81 18 79 53 -3 36 -1 42 9 42 5 0 11 -8 14 -19z
m-263 -1 c8 -5 11 -10 5 -10 -5 0 -17 5 -25 10 -8 5 -10 10 -5 10 6 0 17 -5
25 -10z m60 -10 c0 -5 -5 -10 -11 -10 -5 0 -7 5 -4 10 3 6 8 10 11 10 2 0 4
-4 4 -10z m-638 -13 c32 -11 34 -14 20 -24 -11 -8 -13 -15 -7 -20 6 -4 11 -19
10 -33 0 -21 -5 -25 -29 -25 -27 0 -30 4 -42 55 -7 30 -13 56 -14 58 -1 6 28
1 62 -11z m268 -7 c0 -15 -7 -20 -26 -20 l-26 0 23 20 c30 24 29 24 29 0z m40
-11 c10 -18 9 -20 -6 -17 -9 1 -18 11 -20 21 -3 24 13 22 26 -4z m-229 2 c-11
-7 -10 -10 5 -14 13 -3 11 -5 -8 -6 -29 -1 -38 13 -15 22 21 9 33 7 18 -2z
m293 -12 c-8 -13 -21 -11 -27 5 -4 10 0 12 14 9 10 -3 16 -9 13 -14z m114 -9
c12 0 13 -3 5 -11 -8 -8 -17 -8 -30 0 -14 7 -24 7 -33 -2 -12 -10 -12 -9 0 6
7 10 20 15 27 12 8 -3 22 -5 31 -5z m-331 -16 c-3 -3 -12 -4 -19 -1 -8 3 -5 6
6 6 11 1 17 -2 13 -5z m106 -1 c-7 -2 -21 -2 -30 0 -10 3 -4 5 12 5 17 0 24
-2 18 -5z m322 -13 c3 -5 2 -10 -4 -10 -5 0 -13 5 -16 10 -3 6 -2 10 4 10 5 0
13 -4 16 -10z m-427 -32 c1 -16 8 -40 14 -52 6 -11 13 -48 15 -81 1 -33 5 -72
7 -87 2 -16 -1 -29 -9 -32 -9 -3 -12 0 -8 9 4 12 -1 14 -24 9 -27 -5 -30 -2
-51 44 -15 32 -25 78 -28 128 -3 43 -7 80 -9 83 -2 3 18 7 44 8 46 2 47 1 49
-29z m322 22 c0 -5 -4 -10 -10 -10 -5 0 -10 5 -10 10 0 6 5 10 10 10 6 0 10
-4 10 -10z m35 0 c3 -5 -1 -10 -10 -10 -9 0 -13 5 -10 10 3 6 8 10 10 10 2 0
7 -4 10 -10z m-69 -34 c-3 -11 -6 -47 -6 -78 0 -51 -2 -58 -20 -58 -11 0 -19
-5 -17 -11 1 -6 -20 -19 -48 -29 -27 -9 -44 -19 -37 -23 10 -4 10 -5 0 -3 -9
2 -13 30 -14 100 -1 96 -1 98 25 107 14 6 42 8 61 5 19 -2 27 -2 18 0 -30 9
-20 21 13 16 26 -4 30 -8 25 -26z m-401 -82 c3 -38 13 -96 23 -129 17 -56 20
-60 45 -57 17 2 27 -1 27 -10 0 -9 3 -10 8 -2 4 6 17 14 29 18 17 5 22 3 21
-11 -1 -10 2 -31 6 -47 5 -22 4 -27 -7 -23 -7 3 -46 0 -85 -7 l-72 -12 -6 34
c-5 24 -9 30 -15 20 -6 -9 -9 -9 -9 -1 0 6 4 14 9 18 6 3 3 21 -6 42 -9 23
-13 52 -10 76 4 26 -1 54 -14 84 -10 25 -19 48 -19 52 0 7 61 30 67 26 2 -1 5
-33 8 -71z m443 -41 c26 -22 26 -23 5 -23 -24 0 -44 27 -42 57 0 14 2 14 6 3
3 -8 17 -25 31 -37z m277 -13 c-3 -5 0 -10 7 -10 16 0 -40 -35 -68 -42 -13 -3
-21 0 -21 7 0 7 18 16 39 19 21 3 37 10 37 14 -2 12 1 22 7 22 3 0 2 -4 -1
-10z m-688 -42 c-3 -8 -6 -5 -6 6 -1 11 2 17 5 13 3 -3 4 -12 1 -19z m31 -77
c-12 -4 -14 -1 -22 34 l-7 30 19 -30 c10 -16 15 -32 10 -34z m435 -58 c-7 -2
-19 -2 -25 0 -7 3 -2 5 12 5 14 0 19 -2 13 -5z m526 -143 l-1 -25 -7 26 c-5
14 -14 36 -20 50 l-12 24 20 -25 c11 -14 20 -36 20 -50z m-32 -12 c-3 -8 -6
-5 -6 6 -1 11 2 17 5 13 3 -3 4 -12 1 -19z m7 -294 c3 -8 2 -12 -4 -9 -6 3
-10 10 -10 16 0 14 7 11 14 -7z m-1050 -549 c-4 -8 -11 -15 -16 -15 -6 0 -5 6
2 15 7 8 14 15 16 15 2 0 1 -7 -2 -15z m-70 -41 c3 -8 2 -12 -4 -9 -6 3 -10
10 -10 16 0 14 7 11 14 -7z m368 -99 c11 -14 36 -35 56 -45 59 -32 177 -130
174 -143 -8 -29 -38 -84 -59 -110 -30 -37 -29 -53 2 -33 13 9 27 16 30 16 9 0
5 -28 -4 -32 -18 -6 -16 -30 2 -33 25 -5 26 -6 17 -32 -6 -13 -21 -24 -42 -28
-44 -10 -59 -32 -53 -75 l6 -35 -19 30 c-27 44 -32 63 -19 69 7 2 4 5 -5 5
-24 1 -23 28 1 36 32 10 46 32 31 50 -7 8 -17 12 -23 8 -6 -4 -7 -1 -3 6 5 7
0 21 -11 33 -16 19 -15 19 14 -2 32 -23 58 -23 31 -1 -45 38 -62 51 -70 51 -4
0 -8 6 -8 13 0 6 -11 33 -25 59 -14 26 -29 69 -34 95 -26 132 -25 143 11 98z
m281 -260 c-3 -11 -10 -24 -15 -30 -5 -5 -4 4 2 20 l11 30 -31 -35 c-24 -28
-30 -31 -30 -16 0 11 5 34 12 52 11 32 12 32 34 16 16 -12 21 -23 17 -37z
m108 -53 c6 -15 5 -30 -1 -40 -9 -14 -10 -13 -5 6 11 38 -9 24 -29 -21 -10
-23 -20 -48 -22 -55 -4 -22 -7 -21 -48 14 l-39 34 51 0 c29 0 52 4 52 9 0 6
-9 8 -20 6 -11 -2 -20 0 -20 6 0 5 -7 9 -15 9 -14 0 -13 3 1 25 10 16 14 34
10 51 l-7 26 42 -24 c23 -12 45 -33 50 -46z m-583 -53 c-3 -8 -7 -3 -11 10 -4
17 -3 21 5 13 5 -5 8 -16 6 -23z m466 -55 c3 -8 12 -14 21 -14 20 0 19 -14 -1
-31 -21 -17 -83 -39 -112 -39 -13 0 -20 -4 -17 -10 3 -6 -1 -7 -9 -4 -32 12
-17 42 29 60 25 9 45 23 45 31 0 8 5 11 10 8 6 -4 8 -10 6 -14 -3 -4 1 -8 9
-8 19 0 19 6 -2 29 -15 17 -15 18 -1 13 9 -4 19 -13 22 -21z m-329 -34 c-3 -5
-16 -10 -28 -10 -18 0 -19 2 -7 10 20 13 43 13 35 0z m125 -22 c6 -13 19 -36
29 -53 25 -38 25 -45 4 -44 -11 0 -13 3 -5 6 31 12 -7 23 -84 23 -54 0 -83 -4
-79 -10 9 -15 -39 -12 -54 2 -10 11 -11 10 -6 -4 4 -10 3 -18 -3 -18 -12 0
-10 26 4 40 5 5 18 11 29 13 11 2 31 9 45 17 21 12 98 47 108 49 1 1 7 -9 12
-21z m240 -13 c-7 -8 -22 -15 -34 -14 l-21 0 21 9 c12 5 25 14 29 20 4 6 9 9
12 6 3 -3 0 -12 -7 -21z m-465 -55 c3 -5 2 -10 -4 -10 -5 0 -13 5 -16 10 -3 6
-2 10 4 10 5 0 13 -4 16 -10z m-16 -24 c31 -28 26 -36 -20 -36 -23 0 -59 -5
-79 -11 -42 -13 -90 -5 -90 14 0 19 84 53 128 53 25 -1 48 -8 61 -20z m184 7
c-7 -2 -19 -2 -25 0 -7 3 -2 5 12 5 14 0 19 -2 13 -5z m-113 -37 c0 -2 -7 -7
-16 -10 -8 -3 -12 -2 -9 4 6 10 25 14 25 6z m-120 -26 c13 -8 13 -10 -2 -10
-9 0 -20 5 -23 10 -8 13 5 13 25 0z"/>
<path d="M1260 2434 c0 -3 11 -22 25 -42 14 -20 25 -44 25 -53 0 -9 7 -20 16
-23 13 -5 14 -1 9 27 -10 46 -24 69 -38 61 -7 -4 -9 -4 -5 1 4 4 3 14 -3 22
-11 13 -29 18 -29 7z"/>
<path d="M1347 2380 c-3 -13 -2 -29 3 -34 14 -14 17 -5 10 29 -6 30 -6 30 -13
5z"/>
<path d="M1360 1069 c-41 -17 -109 -42 -150 -56 -41 -13 -113 -43 -159 -66
-67 -32 -80 -42 -65 -48 11 -5 13 -8 5 -8 -8 -1 -12 -4 -8 -7 3 -4 28 6 54 22
26 16 62 34 78 40 17 7 59 24 95 39 36 15 78 27 95 26 19 0 25 3 16 8 -9 6 -2
13 25 22 22 7 44 14 51 15 37 6 82 27 78 35 -10 15 -36 10 -115 -22z m-330
-154 c-7 -8 -18 -15 -24 -15 -6 0 -2 7 8 15 25 19 32 19 16 0z"/>
</g>
</svg>
